<svg width="24" height="24" viewBox="0 0 24 24" fill="none" xmlns="http://www.w3.org/2000/svg">
<path d="M12 11.1C9.27601 11.1 8.72401 6.97199 8.72401 6.97199C8.40001 4.82399 9.38401 2.39999 11.964 2.39999C14.556 2.39999 15.54 4.82399 15.216 6.97199C15.216 6.97199 14.724 11.1 12 11.1ZM12 14.184L15.264 12C18.132 12 20.688 14.796 20.688 17.436V20.424C20.688 20.424 16.308 21.78 12 21.78C7.62001 21.78 3.31201 20.424 3.31201 20.424V17.436C3.31201 14.736 5.64001 12.06 8.67601 12.06L12 14.184Z" fill="#0A9962"/>
</svg>
