<svg width="124" height="124" viewBox="0 0 124 124" fill="none" xmlns="http://www.w3.org/2000/svg">
<circle cx="62" cy="62" r="62" fill="#0A9962"/>
<path d="M61.9998 60.9583C60.6185 60.9583 59.2937 60.4096 58.317 59.4328C57.3402 58.4561 56.7915 57.1313 56.7915 55.75C56.7915 54.3687 57.3402 53.0439 58.317 52.0671C59.2937 51.0904 60.6185 50.5417 61.9998 50.5417C63.3812 50.5417 64.7059 51.0904 65.6827 52.0671C66.6594 53.0439 67.2082 54.3687 67.2082 55.75C67.2082 56.434 67.0735 57.1112 66.8117 57.7431C66.55 58.375 66.1663 58.9492 65.6827 59.4328C65.199 59.9165 64.6249 60.3001 63.993 60.5619C63.3611 60.8236 62.6838 60.9583 61.9998 60.9583ZM61.9998 41.1667C58.1321 41.1667 54.4228 42.7031 51.6879 45.438C48.953 48.1729 47.4165 51.8822 47.4165 55.75C47.4165 66.6875 61.9998 82.8333 61.9998 82.8333C61.9998 82.8333 76.5832 66.6875 76.5832 55.75C76.5832 51.8822 75.0467 48.1729 72.3118 45.438C69.5769 42.7031 65.8676 41.1667 61.9998 41.1667Z" fill="white"/>
</svg>
