<svg width="24" height="24" viewBox="0 0 24 24" fill="none" xmlns="http://www.w3.org/2000/svg">
<path opacity="0.5" d="M9.59224 3.2C9.43441 3.34165 9.26917 3.47484 9.09724 3.599C8.79924 3.799 8.46424 3.937 8.11224 4.007C7.95924 4.037 7.79924 4.05 7.48024 4.075C6.67924 4.139 6.27824 4.171 5.94424 4.289C5.56223 4.42365 5.21527 4.64221 4.92886 4.92862C4.64245 5.21503 4.42389 5.56199 4.28924 5.944C4.17124 6.278 4.13924 6.679 4.07524 7.48C4.06375 7.69172 4.04106 7.90268 4.00724 8.112C3.93724 8.464 3.79924 8.799 3.59924 9.097C3.51224 9.227 3.40824 9.349 3.20024 9.592C2.67924 10.204 2.41824 10.51 2.26524 10.83C1.91224 11.57 1.91224 12.43 2.26524 13.17C2.41824 13.49 2.67924 13.796 3.20024 14.408C3.40824 14.651 3.51224 14.773 3.59924 14.903C3.79924 15.201 3.93724 15.536 4.00724 15.888C4.03724 16.041 4.05024 16.201 4.07524 16.52C4.13924 17.321 4.17124 17.722 4.28924 18.056C4.42389 18.438 4.64245 18.785 4.92886 19.0714C5.21527 19.3578 5.56223 19.5764 5.94424 19.711C6.27824 19.829 6.67924 19.861 7.48024 19.925C7.79924 19.95 7.95924 19.963 8.11224 19.993C8.46424 20.063 8.79924 20.202 9.09724 20.401C9.22724 20.488 9.34924 20.592 9.59224 20.8C10.2042 21.321 10.5102 21.582 10.8302 21.735C11.5702 22.088 12.4302 22.088 13.1702 21.735C13.4902 21.582 13.7962 21.321 14.4082 20.8C14.6512 20.592 14.7732 20.488 14.9032 20.401C15.2012 20.201 15.5362 20.063 15.8882 19.993C16.0412 19.963 16.2012 19.95 16.5202 19.925C17.3212 19.861 17.7222 19.829 18.0562 19.711C18.4382 19.5764 18.7852 19.3578 19.0716 19.0714C19.358 18.785 19.5766 18.438 19.7112 18.056C19.8292 17.722 19.8612 17.321 19.9252 16.52C19.9502 16.201 19.9632 16.041 19.9932 15.888C20.0632 15.536 20.2022 15.201 20.4012 14.903C20.4882 14.773 20.5922 14.651 20.8002 14.408C21.3212 13.796 21.5822 13.49 21.7352 13.17C22.0882 12.43 22.0882 11.57 21.7352 10.83C21.5822 10.51 21.3212 10.204 20.8002 9.592C20.6586 9.43417 20.5254 9.26893 20.4012 9.097C20.2011 8.79905 20.0624 8.46419 19.9932 8.112C19.9594 7.90268 19.9367 7.69172 19.9252 7.48C19.8612 6.679 19.8292 6.278 19.7112 5.944C19.5766 5.56199 19.358 5.21503 19.0716 4.92862C18.7852 4.64221 18.4382 4.42365 18.0562 4.289C17.7222 4.171 17.3212 4.139 16.5202 4.075C16.3085 4.06351 16.0976 4.04082 15.8882 4.007C15.536 3.93782 15.2012 3.79912 14.9032 3.599C14.7313 3.47484 14.5661 3.34165 14.4082 3.2C13.7962 2.679 13.4902 2.418 13.1702 2.265C12.805 2.09017 12.4052 1.99942 12.0002 1.99942C11.5953 1.99942 11.1955 2.09017 10.8302 2.265C10.5102 2.418 10.2042 2.679 9.59224 3.2Z" fill="#0A9962"/>
<path d="M15.8301 8.17001C15.9827 8.32266 16.0684 8.52967 16.0684 8.74551C16.0684 8.96136 15.9827 9.16837 15.8301 9.32101L9.32007 15.831C9.16588 15.9752 8.96172 16.0538 8.75067 16.0503C8.53962 16.0468 8.33818 15.9614 8.18886 15.8122C8.03954 15.663 7.95401 15.4617 7.95032 15.2506C7.94663 15.0396 8.02506 14.8353 8.16907 14.681L14.6791 8.17001C14.7547 8.0943 14.8445 8.03424 14.9433 7.99326C15.0421 7.95228 15.1481 7.93118 15.2551 7.93118C15.3621 7.93118 15.468 7.95228 15.5668 7.99326C15.6657 8.03424 15.7555 8.0943 15.8311 8.17001M15.7981 14.714C15.7981 15.0018 15.6838 15.2777 15.4803 15.4812C15.2768 15.6847 15.0008 15.799 14.7131 15.799C14.4253 15.799 14.1493 15.6847 13.9459 15.4812C13.7424 15.2777 13.6281 15.0018 13.6281 14.714C13.6281 14.4263 13.7424 14.1503 13.9459 13.9468C14.1493 13.7433 14.4253 13.629 14.7131 13.629C15.0008 13.629 15.2768 13.7433 15.4803 13.9468C15.6838 14.1503 15.7981 14.4263 15.7981 14.714ZM9.28707 10.373C9.57483 10.373 9.85081 10.2587 10.0543 10.0552C10.2578 9.85175 10.3721 9.57577 10.3721 9.28801C10.3721 9.00025 10.2578 8.72428 10.0543 8.5208C9.85081 8.31733 9.57483 8.20301 9.28707 8.20301C8.99931 8.20301 8.72334 8.31733 8.51986 8.5208C8.31638 8.72428 8.20207 9.00025 8.20207 9.28801C8.20207 9.57577 8.31638 9.85175 8.51986 10.0552C8.72334 10.2587 8.99931 10.373 9.28707 10.373Z" fill="white"/>
</svg>
