<svg width="17" height="19" viewBox="0 0 17 19" fill="none" xmlns="http://www.w3.org/2000/svg">
<path d="M1 4.83334H16.3333" stroke="#0A9962" stroke-linecap="round" stroke-linejoin="round"/>
<path d="M6.75 8.66666V14.4167" stroke="#0A9962" stroke-linecap="round" stroke-linejoin="round"/>
<path d="M10.584 8.66666V14.4167" stroke="#0A9962" stroke-linecap="round" stroke-linejoin="round"/>
<path d="M1.95898 4.83334L2.91732 16.3333C2.91732 16.8417 3.11925 17.3292 3.4787 17.6886C3.83814 18.0481 4.32565 18.25 4.83398 18.25H12.5007C13.009 18.25 13.4965 18.0481 13.8559 17.6886C14.2154 17.3292 14.4173 16.8417 14.4173 16.3333L15.3757 4.83334" stroke="#0A9962" stroke-linecap="round" stroke-linejoin="round"/>
<path d="M5.79199 4.83333V1.95833C5.79199 1.70417 5.89296 1.46041 6.07268 1.28069C6.2524 1.10097 6.49616 1 6.75033 1H10.5837C10.8378 1 11.0816 1.10097 11.2613 1.28069C11.441 1.46041 11.542 1.70417 11.542 1.95833V4.83333" stroke="#0A9962" stroke-linecap="round" stroke-linejoin="round"/>
</svg>
