<svg width="21" height="21" viewBox="0 0 21 21" fill="none" xmlns="http://www.w3.org/2000/svg">
<path d="M17.339 12.6917V17.1317C17.3388 17.7599 17.0891 18.3623 16.6449 18.8066C16.2007 19.2508 15.5983 19.5004 14.97 19.5007H3.36904C3.0568 19.5006 2.74765 19.4388 2.45938 19.3188C2.1711 19.1988 1.90937 19.023 1.68923 18.8016C1.46909 18.5802 1.29488 18.3174 1.17661 18.0284C1.05833 17.7395 0.998329 17.43 1.00004 17.1177V5.52971C0.998184 5.21796 1.05822 4.90894 1.17666 4.62056C1.29511 4.33218 1.46961 4.07017 1.69006 3.84972C1.9105 3.62928 2.17251 3.45478 2.46089 3.33633C2.74927 3.21789 3.05829 3.15785 3.37004 3.15971H7.80904" stroke="white" stroke-width="1.5" stroke-linecap="round" stroke-linejoin="round"/>
<path d="M17.339 7.2457L13.254 3.1597M5.08399 14.0537V11.8887C5.08599 11.5317 5.22799 11.1887 5.47899 10.9357L15.011 1.4037C15.1375 1.27581 15.2881 1.17427 15.454 1.10498C15.62 1.03568 15.7981 1 15.978 1C16.1579 1 16.3359 1.03568 16.5019 1.10498C16.6679 1.17427 16.8185 1.27581 16.945 1.4037L19.096 3.5547C19.2239 3.68118 19.3254 3.83177 19.3947 3.99776C19.464 4.16374 19.4997 4.34183 19.4997 4.5217C19.4997 4.70157 19.464 4.87965 19.3947 5.04564C19.3254 5.21163 19.2239 5.36222 19.096 5.4887L9.56399 15.0207C9.31052 15.2724 8.9682 15.4143 8.61099 15.4157H6.44599C6.26705 15.416 6.08982 15.3809 5.92446 15.3126C5.7591 15.2442 5.60884 15.1439 5.48232 15.0174C5.35579 14.8908 5.25548 14.7406 5.18713 14.5752C5.11877 14.4099 5.08372 14.2326 5.08399 14.0537Z" stroke="white" stroke-width="1.5" stroke-linecap="round" stroke-linejoin="round"/>
</svg>
