<svg width="14" height="14" viewBox="0 0 14 14" fill="none" xmlns="http://www.w3.org/2000/svg">
<path d="M12.75 6.74966H4.73595M1.90719 6.74966H0.75M1.90719 6.74966C1.90719 6.35489 2.05617 5.97629 2.32136 5.69715C2.58654 5.418 2.94621 5.26118 3.32124 5.26118C3.69627 5.26118 4.05594 5.418 4.32113 5.69715C4.58632 5.97629 4.7353 6.35489 4.7353 6.74966C4.7353 7.14443 4.58632 7.52303 4.32113 7.80217C4.05594 8.08131 3.69627 8.23814 3.32124 8.23814C2.94621 8.23814 2.58654 8.08131 2.32136 7.80217C2.05617 7.52303 1.90719 7.14443 1.90719 6.74966ZM12.75 11.2608H9.02157M9.02157 11.2608C9.02157 11.6557 8.87223 12.0347 8.60698 12.3139C8.34173 12.5931 7.98198 12.75 7.60686 12.75C7.23183 12.75 6.87216 12.5925 6.60698 12.3134C6.34179 12.0342 6.19281 11.6556 6.19281 11.2608M9.02157 11.2608C9.02157 10.866 8.87223 10.4876 8.60698 10.2084C8.34173 9.92922 7.98198 9.77236 7.60686 9.77236C7.23183 9.77236 6.87216 9.92918 6.60698 10.2083C6.34179 10.4875 6.19281 10.8661 6.19281 11.2608M6.19281 11.2608H0.75M12.75 2.23848H10.7359M7.90719 2.23848H0.75M7.90719 2.23848C7.90719 1.84371 8.05617 1.46511 8.32136 1.18597C8.58654 0.906821 8.94621 0.75 9.32124 0.75C9.50694 0.75 9.69082 0.788501 9.86238 0.863304C10.0339 0.938107 10.1898 1.04775 10.3211 1.18597C10.4524 1.32418 10.5566 1.48827 10.6277 1.66886C10.6987 1.84945 10.7353 2.04301 10.7353 2.23848C10.7353 2.43395 10.6987 2.6275 10.6277 2.80809C10.5566 2.98868 10.4524 3.15277 10.3211 3.29099C10.1898 3.42921 10.0339 3.53885 9.86238 3.61365C9.69082 3.68846 9.50694 3.72696 9.32124 3.72696C8.94621 3.72696 8.58654 3.57013 8.32136 3.29099C8.05617 3.01185 7.90719 2.63325 7.90719 2.23848Z" stroke="#0A9962" stroke-width="1.5" stroke-miterlimit="10" stroke-linecap="round"/>
</svg>
