<svg width="22" height="22" viewBox="0 0 22 22" fill="none" xmlns="http://www.w3.org/2000/svg">
<path d="M3 13H21M4 21L4.93 20.07C5.46 19.54 5.724 19.276 6.057 19.126C6.39 18.976 6.763 18.952 7.509 18.906L10.762 18.702C12.36 18.602 13.16 18.552 13.863 18.215C14.566 17.877 15.105 17.285 16.183 16.099L19 13H15.5L13.707 14.793C13.587 14.913 13.528 14.972 13.467 15.024C13.1479 15.2955 12.7516 15.4599 12.334 15.494C12.253 15.5 12.169 15.5 12 15.5M12 15.5C12 15.035 12 14.803 11.962 14.61C11.8849 14.2218 11.6944 13.8653 11.4145 13.5855C11.1347 13.3056 10.7782 13.1151 10.39 13.038C10.197 13 9.965 13 9.5 13H8.718C7.673 13 7.15 13 6.661 13.126C6.29615 13.2197 5.94636 13.3645 5.622 13.556C5.186 13.814 4.817 14.183 4.078 14.922L1 18M12 15.5H8.5M4 10.5C4 8.37827 4.84285 6.34344 6.34315 4.84315C7.84344 3.34285 9.87827 2.5 12 2.5M12 2.5C14.1217 2.5 16.1566 3.34285 17.6569 4.84315C19.1571 6.34344 20 8.37827 20 10.5M12 2.5V1" stroke="#099962" stroke-width="1.5" stroke-linecap="round" stroke-linejoin="round"/>
</svg>
