<svg width="154" height="181" viewBox="0 0 154 181" fill="none" xmlns="http://www.w3.org/2000/svg">
<g clip-path="url(#clip0_299_365)">
<path d="M63.9393 148.558C67.0036 145.441 71.4442 143.654 76.1224 143.654L76.3029 143.654C79.3843 143.655 82.4108 142.849 85.0727 141.318L85.3497 141.159L85.1266 140.933C83.9188 139.7 82.9102 138.292 82.1363 136.757C82.686 137.263 83.3415 137.643 84.0566 137.87C84.7717 138.098 85.5289 138.168 86.2744 138.076C87.0616 137.983 87.8172 137.716 88.4848 137.294C89.1523 136.872 89.7143 136.307 90.1287 135.641C91.7638 133.024 93.7129 129.312 93.7129 126.483C93.7103 124.093 93.2028 121.729 92.2226 119.543C91.2425 117.356 89.8112 115.395 88.02 113.784C86.886 112.776 85.9802 111.543 85.3617 110.166C84.7432 108.789 84.4259 107.3 84.4304 105.794L84.4313 105.579C84.4317 103.597 84.186 101.622 83.6999 99.6978C83.2137 97.7741 83.6505 99.5036 83.6505 99.5036C83.6505 99.5036 84.7547 99.4667 83.4478 99.5105C82.141 99.5544 80.8334 99.4464 79.5521 99.1887C80.754 99.0433 81.9297 98.7349 83.0459 98.2722C83.0459 98.2722 83.1977 98.2487 83.2639 98.1852C83.428 98.0279 83.0459 97.6447 83.0459 97.6447C77.9456 94.5303 66.5766 96.4633 59.8942 81.3845C54.4756 69.1577 35.3571 92.2383 35.3571 105.579C35.3571 106.941 36.7231 108.74 35.7005 109.639C24.6461 119.366 32.2735 125.611 34.6782 131.896C35.2488 133.387 34.0116 135.024 34.0116 136.637C34.0116 136.911 34.0187 137.194 34.0327 137.477L34.054 137.913L34.4226 137.671C35.1517 137.2 35.8276 136.653 36.4387 136.04C35.8047 137.479 35.506 139.04 35.5644 140.607C35.6228 142.175 36.0368 143.71 36.7761 145.099C37.9346 147.255 39.0553 148.799 40.1072 149.687C43.4768 152.531 47.8207 153.998 52.2506 153.788C56.6804 153.578 60.8617 151.707 63.9393 148.558Z" fill="#E6E6E6"/>
<path d="M44.478 181C44.4027 181 44.33 180.973 44.2731 180.924C44.2162 180.876 44.1791 180.808 44.1685 180.735C44.1552 180.643 42.8522 171.375 44.0224 159.058C45.1031 147.682 48.5736 131.298 58.9699 117.842C58.9948 117.81 59.0259 117.782 59.0614 117.762C59.097 117.741 59.1363 117.728 59.177 117.723C59.2178 117.717 59.2593 117.72 59.299 117.73C59.3388 117.74 59.3762 117.758 59.4089 117.783C59.4416 117.808 59.4691 117.838 59.4898 117.873C59.5105 117.909 59.5239 117.947 59.5294 117.988C59.5349 118.028 59.5323 118.069 59.5218 118.108C59.5112 118.147 59.4929 118.184 59.4679 118.216C49.1615 131.556 45.719 147.82 44.6459 159.115C43.4825 171.361 44.7752 180.556 44.7884 180.648C44.7947 180.691 44.7914 180.736 44.7787 180.779C44.7659 180.821 44.7441 180.86 44.7147 180.894C44.6853 180.927 44.6489 180.954 44.6081 180.972C44.5673 180.991 44.5229 181 44.478 181Z" fill="#0B573C"/>
<path d="M52.9616 136.822C52.8955 136.822 52.831 136.802 52.7775 136.764C52.724 136.725 52.6841 136.671 52.6636 136.609C52.6432 136.547 52.6431 136.48 52.6636 136.418C52.684 136.356 52.7238 136.302 52.7773 136.264C55.7396 134.286 58.9398 132.68 62.3041 131.481C67.5602 129.583 75.5529 127.863 83.7812 130.445C83.8205 130.458 83.8569 130.477 83.8884 130.503C83.9199 130.53 83.9459 130.562 83.9648 130.598C83.9838 130.634 83.9954 130.673 83.9989 130.713C84.0024 130.754 83.9977 130.795 83.9853 130.833C83.9728 130.872 83.9527 130.908 83.9261 130.939C83.8995 130.97 83.867 130.996 83.8304 131.014C83.7938 131.033 83.7539 131.044 83.7128 131.047C83.6718 131.051 83.6305 131.046 83.5913 131.034C75.5316 128.504 67.6838 130.196 62.5194 132.061C59.2091 133.239 56.0603 134.819 53.1454 136.763C53.092 136.802 53.0277 136.822 52.9616 136.822Z" fill="#0B573C"/>
<path d="M38.6312 101.622C38.6264 101.557 38.6426 101.492 38.6774 101.437C38.7123 101.382 38.7641 101.338 38.8254 101.314C38.8866 101.289 38.9542 101.284 39.0184 101.3C39.0826 101.316 39.1402 101.351 39.1828 101.401C41.3961 104.172 43.2514 107.205 44.706 110.428C47.0038 115.461 49.3193 123.2 47.2999 131.48C47.2903 131.519 47.273 131.556 47.2488 131.589C47.2246 131.622 47.1941 131.65 47.1591 131.671C47.124 131.692 47.085 131.707 47.0444 131.713C47.0037 131.719 46.9622 131.718 46.9222 131.708C46.8822 131.699 46.8445 131.681 46.8112 131.658C46.7779 131.634 46.7498 131.604 46.7283 131.569C46.7068 131.534 46.6925 131.496 46.6861 131.456C46.6797 131.416 46.6814 131.375 46.6911 131.335C48.669 123.225 46.3927 115.627 44.1349 110.681C42.705 107.51 40.8807 104.526 38.7041 101.799C38.6614 101.749 38.6359 101.687 38.6312 101.622Z" fill="#0B573C"/>
<path d="M132.78 84.031L127.969 66.4713C127.763 65.728 127.269 65.0943 126.594 64.7071C125.918 64.3199 125.115 64.2102 124.358 64.4016C123.967 64.5006 123.6 64.6773 123.28 64.9208C122.96 65.1642 122.693 65.4695 122.497 65.8178C122.3 66.1661 122.178 66.5503 122.137 66.9469C122.095 67.3435 122.137 67.7442 122.258 68.1246L127.821 86.2137L130.732 97.3458C130.308 97.6651 129.994 98.1053 129.833 98.6067C129.672 99.1081 129.671 99.6464 129.83 100.148C129.99 100.65 130.302 101.092 130.725 101.413C131.148 101.733 131.66 101.918 132.193 101.942C132.726 101.965 133.253 101.826 133.703 101.544C134.153 101.261 134.504 100.849 134.709 100.363C134.913 99.8771 134.961 99.3409 134.845 98.8273C134.73 98.3137 134.456 97.8476 134.063 97.4924L132.78 84.031Z" fill="#F9A31E"/>
<path d="M92.3016 80.2491L106.917 69.1556C107.535 68.6838 107.94 67.9914 108.045 67.2277C108.15 66.464 107.946 65.6904 107.477 65.0737C107.235 64.7547 106.929 64.4877 106.578 64.289C106.228 64.0903 105.84 63.9641 105.439 63.918C105.037 63.872 104.63 63.907 104.243 64.0211C103.856 64.1352 103.496 64.3258 103.186 64.5815L88.3619 76.5639L79.0431 83.4704C78.5819 83.206 78.0494 83.088 77.5179 83.1325C76.9864 83.1769 76.4816 83.3816 76.0722 83.7189C75.6628 84.0561 75.3686 84.5094 75.2295 85.0173C75.0904 85.5252 75.1132 86.063 75.2949 86.5577C75.4765 87.0523 75.8082 87.4798 76.2447 87.7821C76.6813 88.0844 77.2016 88.2468 77.735 88.2473C78.2685 88.2478 78.7891 88.0863 79.2262 87.7848C79.6633 87.4833 79.9958 87.0563 80.1783 86.562L92.3016 80.2491Z" fill="#F9A31E"/>
<path d="M104.214 82.7993L103.569 96.9899L123.798 92.6539C122.076 86.9518 120.905 85.9792 122.199 82.011L104.214 82.7993Z" fill="#F9A31E"/>
<path d="M116.652 56.7841H109.911L107.017 61.6692L105.638 61.5941C104.963 61.5573 104.288 61.6567 103.653 61.886C103.019 62.1153 102.439 62.4698 101.948 62.9278C101.457 63.3858 101.067 63.9376 100.799 64.5497C100.532 65.1617 100.395 65.821 100.395 66.4873L102.094 69.0851C102.094 69.0851 99.0547 74.3089 103.433 76.8788C103.433 76.8788 102.652 81.7209 103.433 81.6688C104.214 81.6168 106.012 80.6313 104.214 81.6168C102.415 82.6022 102.549 82.7345 102.782 82.964L103.014 83.1935L121.926 86.3253C121.926 86.3253 122.48 82.7095 122.539 82.0646C122.599 81.4196 122.199 82.9964 122.599 81.4197C122.998 79.8429 123.598 80.4342 122.998 79.8429C122.399 79.2517 126.883 71.9264 125.041 69.085L127.994 66.2437C127.994 63.5181 123.556 61.3086 120.792 61.3086H120.438L116.652 56.7841Z" fill="#E6E6E6"/>
<path d="M100.412 175.202H97.6836L96.3857 164.824L100.412 164.825L100.412 175.202Z" fill="#F9A31E"/>
<path d="M92.1779 179.172C92.1792 179.474 92.301 179.762 92.5169 179.976C92.7328 180.189 93.0253 180.31 93.3309 180.312H98.4665L98.6256 179.986L99.352 178.508L99.6333 179.986L99.6956 180.312H101.633L101.605 179.984L101.088 173.875L100.413 173.834L97.4933 173.664L96.7761 173.621V175.445C96.2319 176.015 91.9611 178.174 92.1779 179.172Z" fill="#0B573C"/>
<path d="M140.957 168.155L138.663 169.611L131.878 161.575L135.264 159.427L140.957 168.155Z" fill="#F9A31E"/>
<path d="M136.21 175.887C136.376 176.14 136.637 176.318 136.936 176.382C137.234 176.446 137.546 176.392 137.805 176.23L142.124 173.49L142.079 173.132L141.879 171.501L142.926 172.594L143.157 172.834L144.786 171.801L144.583 171.54L140.798 166.678L140.207 167.004L137.658 168.418L137.031 168.765L138.032 170.299C137.888 171.069 135.48 175.163 136.21 175.887Z" fill="#0B573C"/>
<path d="M174.81 180.832L0.819641 181C0.645984 180.999 0.479741 180.93 0.357254 180.808C0.234767 180.686 0.166016 180.521 0.166016 180.348C0.166016 180.176 0.234767 180.011 0.357254 179.889C0.479741 179.767 0.645984 179.698 0.819641 179.697L174.81 179.528C174.984 179.529 175.15 179.598 175.273 179.721C175.395 179.843 175.464 180.008 175.464 180.18C175.464 180.352 175.395 180.518 175.273 180.64C175.15 180.762 174.984 180.831 174.81 180.832Z" fill="#CACACA"/>
<path d="M123.481 91.0508C123.481 91.0508 110.551 97.7964 103.711 93.1942C103.711 93.1942 102.215 100.34 101.616 100.932C101.016 101.523 100.061 101.781 100.739 102.44C101.416 103.1 101.793 103.99 100.505 105.122C99.2178 106.253 97.9338 105.894 99.1753 107.059C100.417 108.224 95.4209 136.802 95.4209 136.802C95.4209 136.802 96.2202 163.379 95.4209 164.182C94.6215 164.986 94.3158 165.549 94.5869 166.16C95.6207 167.154 95.6207 166.383 95.6207 167.754V169.125L96.0937 170.488H102.582C102.582 170.488 104.148 168.694 102.582 167.136C102.582 167.136 103.059 165.151 103.536 163.689C103.77 162.974 104.014 163.341 104.014 162.227C103.215 160.65 102.831 160.95 102.823 159.913C102.815 158.876 114.606 118.276 114.606 118.276L116.034 140.748L133.211 165.358L138.267 161.618C138.267 161.618 134.586 156.508 135.447 155.805C136.307 155.102 132.909 154.221 133.981 153.429C135.052 152.636 132.473 151.837 133.445 150.787C134.417 149.736 132.106 147.088 130.766 147.088C129.427 147.088 127.547 142.674 127.547 142.674L130.353 107.803L123.481 91.0508Z" fill="#0B573C"/>
<path d="M109.776 42.4403C109.685 42.5587 108.956 42.4949 108.079 42.3687C106.346 42.1191 106.109 42.4157 104.814 43.5782C102.936 45.2622 104.004 55.5334 103.081 57.7589L102.783 57.9754C103.374 57.8641 103.955 57.7039 104.519 57.4965C104.837 56.5054 105.157 55.5111 105.478 54.5208C105.782 55.2913 105.972 56.1005 106.045 56.924C106.491 56.7505 106.935 56.3262 108.799 55.7572C109.738 55.1291 116.53 54.4975 117.403 54.2211C119.62 46.7846 116.048 43.7773 109.776 42.4403Z" fill="#0B573C"/>
<path d="M112.069 53.9075C115.654 53.9075 118.56 51.0414 118.56 47.506C118.56 43.9705 115.654 41.1044 112.069 41.1044C108.484 41.1044 105.578 43.9705 105.578 47.506C105.578 51.0414 108.484 53.9075 112.069 53.9075Z" fill="#F9A31E"/>
<path d="M116.156 41.8761C115.79 41.8228 115.438 41.7011 115.119 41.5174C114.961 41.4231 114.832 41.2868 114.749 41.124C114.665 40.9612 114.63 40.7785 114.647 40.5968C114.727 40.142 115.248 39.8704 115.715 39.8981C116.18 39.9642 116.622 40.1406 117.003 40.4122C116.961 39.9726 116.771 39.5597 116.463 39.2397C116.154 38.9197 115.746 38.7112 115.303 38.6477C115.917 38.6151 116.556 38.5863 117.124 38.8193C117.693 39.0524 118.166 39.6296 118.064 40.2281C119.019 40.1067 119.961 40.7632 120.355 41.6299C120.75 42.4965 120.672 43.5143 120.356 44.412C120.325 44.5495 120.265 44.6788 120.179 44.7911C120.092 44.9034 119.983 44.9962 119.857 45.063C119.535 45.1834 119.19 44.9816 118.911 44.7827C117.456 43.7435 116.131 42.5371 114.965 41.1889" fill="#0B573C"/>
<path d="M118.986 54.3118C118.71 54.4395 118.854 54.9149 118.64 55.1277C118.547 55.2179 118.435 55.2866 118.312 55.3288C118.28 54.9321 118.186 54.5425 118.034 54.1738C118.006 54.1068 117.96 54.0319 117.888 54.0378C117.805 54.0477 117.783 54.1561 117.781 54.2369C117.764 54.6378 117.674 55.0323 117.515 55.4017C117.513 55.4057 117.511 55.4116 117.509 55.4155C117.447 55.4135 117.383 55.4116 117.323 55.4096C116.859 55.3919 115.832 54.2172 115.604 54.6153C116.408 53.2101 117.387 51.0972 117.537 49.491C117.589 49.1547 117.563 48.8112 117.463 48.4858C117.41 48.3239 117.312 48.1803 117.179 48.072C117.046 47.9637 116.884 47.8953 116.713 47.8748C116.629 47.871 116.545 47.8857 116.467 47.9177C116.389 47.9497 116.319 47.9984 116.262 48.0602C116.206 48.1219 116.163 48.1953 116.139 48.275C116.114 48.3547 116.108 48.4388 116.12 48.5213L116.004 48.5055C114.929 47.6423 115.856 46.1424 114.605 45.5492C114.181 45.3481 111.587 46.0202 111.13 45.9019C111.12 45.4265 111.022 44.9569 110.84 44.5164C110.812 44.4494 110.766 44.3745 110.694 44.3804C110.61 44.3902 110.588 44.4986 110.586 44.5794C110.569 44.9803 110.479 45.3749 110.32 45.7443C109.687 45.6556 109.041 45.689 108.42 45.8428C107.872 45.9847 107.353 46.2291 106.803 46.3592C106.532 46.4413 106.246 46.4679 105.963 46.4374C105.681 46.4069 105.408 46.3199 105.161 46.1818C104.463 45.7206 104.341 44.6997 104.689 43.9468C104.941 43.4637 105.281 43.0307 105.692 42.6696C106.006 42.3701 106.332 42.0823 106.657 41.7946C106.949 41.5364 107.241 41.2782 107.533 41.02C107.9 40.679 108.291 40.3642 108.704 40.0779C109.362 39.6522 110.102 39.3637 110.878 39.2302C111.653 39.0967 112.448 39.1209 113.214 39.3013C114.133 39.5181 115.362 39.2127 116.204 39.6364C116.643 39.8591 117.617 40.7125 118.002 41.016C118.99 41.7906 118.321 41.1595 119.401 41.6073C121.976 42.6752 120.837 53.452 118.986 54.3118Z" fill="#0B573C"/>
<path d="M47.1179 101.036C69.3494 101.036 87.3716 83.2617 87.3716 61.3361C87.3716 39.4104 69.3494 21.6362 47.1179 21.6362C24.8864 21.6362 6.86426 39.4104 6.86426 61.3361C6.86426 83.2617 24.8864 101.036 47.1179 101.036Z" fill="white"/>
<path d="M47.1174 101.432C24.6999 101.432 6.46191 83.4451 6.46191 61.336C6.46191 39.227 24.6999 21.2399 47.1174 21.2399C69.5348 21.2399 87.7728 39.227 87.7728 61.336C87.7728 83.4451 69.5348 101.432 47.1174 101.432ZM47.1174 22.0324C25.143 22.0324 7.26553 39.664 7.26553 61.336C7.26553 83.0081 25.143 100.64 47.1174 100.64C69.0917 100.64 86.9692 83.0081 86.9692 61.336C86.9692 39.664 69.0917 22.0324 47.1174 22.0324Z" fill="#FF8D4D"/>
<path d="M48.4424 82.0674C49.9746 81.0941 51.5114 80.1254 53.0437 79.1521C53.7373 78.7131 54.4399 78.2785 55.1154 77.8077C56.7202 76.6896 58.2252 75.4176 59.5626 73.9872C62.21 71.1489 64.2228 67.7855 65.4967 64.1234C66.5348 61.1313 66.9791 57.9761 66.9791 54.8165V48.7914C66.9791 47.9811 66.4124 47.275 65.6463 47.0441C65.0932 46.8766 64.5447 46.7046 64.0143 46.4828C64.1593 46.5416 64.3044 46.605 64.4495 46.6638C63.502 46.261 62.6135 45.7449 61.7975 45.1202L62.1647 45.4054C61.3578 44.7807 60.6324 44.061 60.0068 43.2552L60.2924 43.6219C59.6668 42.8071 59.1455 41.9153 58.742 40.9692C58.801 41.1141 58.8644 41.2589 58.9234 41.4038C58.7874 41.0779 58.6604 40.7429 58.5516 40.4079C58.3068 39.6429 57.6223 39.0771 56.8018 39.0771H40.5317C39.7838 39.0771 39.0312 39.0544 38.2832 39.0771H38.2515C37.4264 39.0771 36.7464 39.6429 36.5016 40.4079C36.3928 40.7474 36.2704 41.0779 36.1299 41.4038C36.1888 41.2589 36.2523 41.1141 36.3112 40.9692C35.9078 41.9153 35.3864 42.8026 34.7608 43.6219L35.0464 43.2552C34.4208 44.061 33.6955 44.7807 32.8886 45.4054L33.2558 45.1202C32.4398 45.7449 31.5467 46.261 30.6038 46.6638C30.7489 46.605 30.8939 46.5416 31.039 46.4828C30.5041 46.7046 29.9601 46.8766 29.407 47.0441C28.6409 47.275 28.0742 47.9811 28.0742 48.7914V54.2506C28.0742 55.2103 28.0742 56.17 28.1422 57.1296C28.2873 59.0807 28.6182 61.0271 29.1667 62.9057C30.2547 66.6358 32.1406 70.0715 34.643 73.0365C36.5878 75.3406 38.9315 77.2057 41.4701 78.8126L46.4885 81.9904C46.5293 82.0176 46.5746 82.0447 46.6154 82.0719C47.4178 82.5789 48.6509 82.2665 49.0952 81.42C49.5666 80.5237 49.2992 79.4871 48.4424 78.9439C47.6264 78.4279 46.8104 77.9118 45.9989 77.3958C44.9563 76.7349 43.9181 76.0785 42.8755 75.4176C42.1456 74.9559 41.4339 74.4625 40.7448 73.9374L41.112 74.2225C39.3984 72.8962 37.8571 71.3571 36.5288 69.646L36.8144 70.0127C35.4635 68.2608 34.3392 66.3415 33.4734 64.3045C33.5323 64.4493 33.5958 64.5942 33.6547 64.7391C32.7707 62.6432 32.1678 60.4432 31.8641 58.1889C31.8867 58.3473 31.9094 58.5103 31.9275 58.6687C31.7326 57.2021 31.7009 55.7354 31.7009 54.2642V48.8095C31.2566 49.3935 30.8123 49.9729 30.3681 50.5568C31.9321 50.0861 33.4462 49.4614 34.7744 48.5062C36.3475 47.3745 37.6894 45.9803 38.6867 44.3145C39.2352 43.4001 39.675 42.4042 40.0013 41.3902C39.4166 41.8338 38.8363 42.2775 38.2515 42.7211H54.5215C55.2695 42.7211 56.0221 42.7392 56.7701 42.7211H56.8018C56.217 42.2775 55.6367 41.8338 55.0519 41.3902C56.1898 44.9346 58.7738 48.0173 62.1647 49.6107C62.9807 49.9955 63.8193 50.2943 64.6852 50.5568C64.2409 49.9729 63.7967 49.3935 63.3524 48.8095V55.2284C63.3524 56.3782 63.2753 57.528 63.1257 58.6687C63.1484 58.5103 63.1711 58.3473 63.1892 58.1889C62.8809 60.4387 62.278 62.6432 61.3986 64.7391C61.4575 64.5942 61.521 64.4493 61.5799 64.3045C60.714 66.3415 59.5898 68.2608 58.2388 70.0127L58.5244 69.646C57.1962 71.3571 55.6549 72.8962 53.9413 74.2225L54.3085 73.9374C53.293 74.7205 52.2141 75.395 51.1351 76.083C49.9384 76.8435 48.7416 77.5995 47.5448 78.36C47.2365 78.5546 46.9237 78.7538 46.6154 78.9484C46.221 79.1974 45.9082 79.5731 45.7813 80.0303C45.6634 80.4649 45.7178 81.0398 45.9626 81.4246C46.4794 82.2213 47.5856 82.6106 48.4424 82.0674Z" fill="#FF8D4D"/>
<path d="M38.2872 60.6062L42.9429 65.2551L43.6048 65.916C44.2984 66.6086 45.477 66.6086 46.1706 65.916L49.7656 62.3263L55.4549 56.6453L56.765 55.3371C57.4359 54.6671 57.4858 53.4358 56.765 52.7749C56.0396 52.1095 54.9154 52.0597 54.1991 52.7749L50.6042 56.3646L44.9149 62.0457L43.6048 63.3539H46.1706L41.5149 58.7049L40.8531 58.044C40.1821 57.3741 38.9491 57.3243 38.2872 58.044C37.6208 58.7683 37.571 59.8864 38.2872 60.6062Z" fill="#FF8D4D"/>
<rect x="27.9805" y="38.7442" width="40.313" height="8.53883" fill="white"/>
<rect width="22.1549" height="3.66027" rx="1.83014" transform="matrix(0.924586 -0.380973 0.38192 0.924195 27.6855 47.7946)" fill="#F9A31E"/>
<rect width="22.5766" height="3.66027" rx="1.83014" transform="matrix(-0.924586 -0.380973 -0.38192 0.924195 67.5088 47.767)" fill="#F9A31E"/>
</g>
<defs>
<clipPath id="clip0_299_365">
<rect width="154" height="181" fill="white"/>
</clipPath>
</defs>
</svg>
