<svg width="22" height="19" viewBox="0 0 22 19" fill="none" xmlns="http://www.w3.org/2000/svg">
<path d="M9 9H13.2" stroke="#0A9962" stroke-width="1.5" stroke-linecap="round" stroke-linejoin="round"/>
<path d="M13.1246 6H10.3926C8.5183 6 7 7.41015 7 9.15C7 10.8899 8.51935 12.3 10.3915 12.3H13.1246C13.2128 12.3 13.2559 12.3 13.2926 12.2979C13.8596 12.2633 14.3111 11.8443 14.3479 11.3182C14.35 11.2846 14.35 11.2437 14.35 11.1629V7.13715C14.35 7.0563 14.35 7.01535 14.3479 6.98175C14.3101 6.4557 13.8596 6.03675 13.2926 6.0021C13.2569 6 13.2128 6 13.1246 6Z" stroke="#0A9962" stroke-width="1.5"/>
<path d="M20.9132 6.25C20.8313 4.2844 20.5688 3.079 19.7194 2.2306C18.4898 1 16.5095 1 12.55 1H9.4C5.44045 1 3.46015 1 2.2306 2.2306C1.00105 3.4612 1 5.44045 1 9.4C1 13.3595 1 15.3398 2.2306 16.5694C3.4612 17.7989 5.44045 17.8 9.4 17.8H12.55C16.5095 17.8 18.4898 17.8 19.7194 16.5694C20.5688 15.721 20.8324 14.5156 20.9132 12.55" stroke="#0A9962" stroke-width="1.5"/>
<path d="M11 9H11.011" stroke="#0A9962" stroke-width="2" stroke-linecap="round" stroke-linejoin="round"/>
</svg>
