<svg width="30" height="30" viewBox="0 0 30 30" fill="none" xmlns="http://www.w3.org/2000/svg">
<path d="M21.25 13.5063C21.25 13.0738 21.25 12.8575 21.315 12.665C21.5038 12.105 22.0025 11.8888 22.5025 11.6613C23.0625 11.405 23.3425 11.2775 23.6213 11.255C23.9363 11.23 24.2525 11.2975 24.5225 11.4488C24.88 11.6488 25.13 12.0313 25.385 12.3413C26.5638 13.7738 27.1538 14.49 27.3688 15.2788C27.5438 15.9163 27.5438 16.5838 27.3688 17.22C27.055 18.3725 26.0613 19.3375 25.325 20.2325C24.9488 20.6888 24.76 20.9175 24.5225 21.0513C24.2479 21.2036 23.9342 21.271 23.6213 21.245C23.3425 21.2225 23.0625 21.095 22.5013 20.8388C22.0013 20.6113 21.5038 20.395 21.315 19.835C21.25 19.6425 21.25 19.4263 21.25 18.9938V13.5063ZM8.75001 13.5063C8.75001 12.9613 8.73501 12.4725 8.29501 12.09C8.13501 11.9513 7.92251 11.855 7.49876 11.6613C6.93751 11.4063 6.65751 11.2775 6.37876 11.255C5.54501 11.1875 5.09626 11.7575 4.61626 12.3425C3.43626 13.7738 2.84626 14.49 2.63001 15.28C2.45601 15.9154 2.45601 16.5859 2.63001 17.2213C2.94501 18.3725 3.94001 19.3388 4.67501 20.2325C5.13876 20.795 5.58251 21.3088 6.37876 21.245C6.65751 21.2225 6.93751 21.095 7.49876 20.8388C7.92376 20.6463 8.13501 20.5488 8.29501 20.41C8.73501 20.0275 8.75001 19.5388 8.75001 18.995V13.5063Z" stroke="#949FA3" stroke-width="1.5"/>
<path d="M6.25 11.25C6.25 7.1075 10.1675 3.75 15 3.75C19.8325 3.75 23.75 7.1075 23.75 11.25" stroke="#949FA3" stroke-width="1.5" stroke-linecap="square" stroke-linejoin="round"/>
<path d="M23.75 21.25V22.25C23.75 24.4587 21.5125 26.25 18.75 26.25H16.25" stroke="#949FA3" stroke-width="1.5" stroke-linecap="round" stroke-linejoin="round"/>
</svg>
