<svg width="30" height="30" viewBox="0 0 30 30" fill="none" xmlns="http://www.w3.org/2000/svg">
<g clip-path="url(#clip0_181_493)">
<path d="M11.9363 26.9375C13.1106 26.9375 14.0626 25.9855 14.0626 24.8112C14.0626 23.637 13.1106 22.685 11.9363 22.685C10.762 22.685 9.81006 23.637 9.81006 24.8112C9.81006 25.9855 10.762 26.9375 11.9363 26.9375Z" stroke="#949FA3" stroke-width="1.5" stroke-linecap="round" stroke-linejoin="round"/>
<path d="M21.2 26.9375C22.3743 26.9375 23.3262 25.9855 23.3262 24.8112C23.3262 23.637 22.3743 22.685 21.2 22.685C20.0257 22.685 19.0737 23.637 19.0737 24.8112C19.0737 25.9855 20.0257 26.9375 21.2 26.9375Z" stroke="#949FA3" stroke-width="1.5" stroke-linecap="round" stroke-linejoin="round"/>
<path d="M7.0075 7.94375L9.52 15.8987C9.90625 17.1212 10.0988 17.7325 10.47 18.185C10.795 18.585 11.2187 18.8938 11.6975 19.085C12.2412 19.3013 12.8813 19.3012 14.1638 19.3012H18.9825C20.265 19.3012 20.905 19.3013 21.4475 19.085C21.9275 18.8938 22.35 18.585 22.6763 18.185C23.0463 17.7325 23.2387 17.1212 23.6262 15.8987L24.1375 14.2788L24.4375 13.3213L24.8513 12.0088C24.9989 11.5406 25.0342 11.0443 24.9543 10.56C24.8744 10.0757 24.6815 9.61702 24.3913 9.22114C24.1011 8.82527 23.7217 8.50332 23.2839 8.28139C22.846 8.05946 22.3621 7.94379 21.8712 7.94375H7.0075ZM7.0075 7.94375L6.99375 7.8975C6.94097 7.7207 6.8826 7.54561 6.81875 7.3725C6.56569 6.73193 6.13654 6.17603 5.58091 5.76903C5.02527 5.36204 4.36582 5.12056 3.67875 5.0725C3.55 5.0625 3.40875 5.0625 3.125 5.0625" stroke="#949FA3" stroke-width="1.5" stroke-linecap="round" stroke-linejoin="round"/>
</g>
<defs>
<clipPath id="clip0_181_493">
<rect width="30" height="30" fill="white"/>
</clipPath>
</defs>
</svg>
