<svg width="30" height="30" viewBox="0 0 30 30" fill="none" xmlns="http://www.w3.org/2000/svg">
<path fill-rule="evenodd" clip-rule="evenodd" d="M6.24997 11.25C6.24997 8.92936 7.17185 6.70376 8.81279 5.06282C10.4537 3.42187 12.6793 2.5 15 2.5C17.3206 2.5 19.5462 3.42187 21.1872 5.06282C22.8281 6.70376 23.75 8.92936 23.75 11.25V15.955L26.0275 20.51C26.1323 20.7197 26.1818 20.9526 26.1713 21.1868C26.1608 21.421 26.0905 21.6485 25.9673 21.8479C25.8441 22.0473 25.6719 22.2119 25.4671 22.326C25.2624 22.4401 25.0319 22.5 24.7975 22.5H19.8425C19.5644 23.5728 18.938 24.5229 18.0616 25.2012C17.1851 25.8794 16.1082 26.2474 15 26.2474C13.8917 26.2474 12.8149 25.8794 11.9384 25.2012C11.0619 24.5229 10.4355 23.5728 10.1575 22.5H5.20247C4.96807 22.5 4.73755 22.4401 4.53281 22.326C4.32806 22.2119 4.1559 22.0473 4.03266 21.8479C3.90941 21.6485 3.83919 21.421 3.82866 21.1868C3.81813 20.9526 3.86763 20.7197 3.97247 20.51L6.24997 15.955V11.25ZM12.835 22.5C13.0544 22.88 13.37 23.1956 13.75 23.415C14.1301 23.6344 14.5612 23.7499 15 23.7499C15.4388 23.7499 15.8699 23.6344 16.2499 23.415C16.63 23.1956 16.9455 22.88 17.165 22.5H12.835ZM15 5C13.3424 5 11.7527 5.65848 10.5806 6.83058C9.40845 8.00269 8.74997 9.5924 8.74997 11.25V15.955C8.74995 16.3429 8.65965 16.7255 8.48622 17.0725L7.02372 20H22.9775L21.515 17.0725C21.3411 16.7256 21.2504 16.343 21.25 15.955V11.25C21.25 9.5924 20.5915 8.00269 19.4194 6.83058C18.2473 5.65848 16.6576 5 15 5Z" fill="#949FA3"/>
</svg>
