<svg width="20" height="22" viewBox="0 0 20 22" fill="none" xmlns="http://www.w3.org/2000/svg">
<path d="M8.271 20.0004C8.44654 20.3044 8.69902 20.5569 9.00306 20.7324C9.30709 20.9079 9.65197 21.0003 10.003 21.0003C10.3541 21.0003 10.699 20.9079 11.003 20.7324C11.307 20.5569 11.5595 20.3044 11.7351 20.0004" stroke="#0A9962" stroke-width="2" stroke-linecap="round" stroke-linejoin="round"/>
<path d="M1.26127 14.3263C1.13064 14.4695 1.04442 14.6475 1.01313 14.8388C0.981826 15.0301 1.00679 15.2263 1.08498 15.4037C1.16317 15.5811 1.29121 15.7319 1.45353 15.8378C1.61586 15.9437 1.80546 16.0002 1.99929 16.0003H17.9996C18.1934 16.0004 18.3831 15.9441 18.5455 15.8384C18.7079 15.7327 18.8361 15.582 18.9145 15.4048C18.9929 15.2276 19.0181 15.0314 18.9871 14.8401C18.956 14.6488 18.8701 14.4706 18.7396 14.3273C17.4096 12.9562 15.9996 11.4992 15.9996 7.00012C15.9996 5.40879 15.3674 3.88264 14.2422 2.7574C13.1169 1.63215 11.5908 1 9.99946 1C8.40812 1 6.88197 1.63215 5.75673 2.7574C4.63149 3.88264 3.99933 5.40879 3.99933 7.00012C3.99933 11.4992 2.5883 12.9562 1.26127 14.3263Z" stroke="#0A9962" stroke-width="2" stroke-linecap="round" stroke-linejoin="round"/>
</svg>
