<svg width="354" height="300" viewBox="0 0 354 300" fill="none" xmlns="http://www.w3.org/2000/svg">
<path d="M177 299.061C274.754 299.061 354 293.733 354 287.161C354 280.589 274.754 275.262 177 275.262C79.2456 275.262 0 280.589 0 287.161C0 293.733 79.2456 299.061 177 299.061Z" fill="#329B3C"/>
<path d="M28.4446 171.435L24.7882 172.626L33.071 198.057L36.7274 196.866L28.4446 171.435Z" fill="#898684"/>
<path d="M53.8781 169.807L50.2217 170.998L58.5045 196.43L62.1609 195.239L53.8781 169.807Z" fill="#898684"/>
<path d="M32.5982 206.591C29.4203 206.591 26.8476 204.015 26.8476 200.841C26.8476 197.667 29.4243 195.09 32.5982 195.09C35.7722 195.09 35.7761 206.591 32.5982 206.591Z" fill="#FACA00"/>
<path d="M38.322 193.796H31.4627V207.421H38.322V193.796Z" fill="#0C7F40"/>
<path d="M179.663 146.481C187.006 146.481 192.96 152.435 192.96 159.778C192.96 167.122 187.006 173.075 179.663 173.075C172.319 173.075 172.319 146.485 179.663 146.485V146.481Z" fill="#FACA00"/>
<path d="M212.73 282.837C229.572 279.605 240.607 263.332 237.376 246.49C234.144 229.647 217.871 218.613 201.029 221.844C184.186 225.075 173.152 241.348 176.383 258.191C179.614 275.034 195.887 286.068 212.73 282.837Z" fill="#323336"/>
<path d="M229.158 252.348C229.158 264.654 219.183 274.632 206.874 274.632C194.564 274.632 184.59 264.658 184.59 252.348C184.59 240.039 194.564 230.064 206.874 230.064C219.183 230.064 229.158 240.039 229.158 252.348Z" fill="#555454"/>
<path d="M222.692 252.345C222.692 261.082 215.61 268.164 206.873 268.164C198.136 268.164 191.054 261.082 191.054 252.345C191.054 243.608 198.136 236.526 206.873 236.526C215.61 236.526 222.692 243.608 222.692 252.345Z" fill="#161616"/>
<path d="M213.468 252.347C213.468 255.99 210.516 258.941 206.874 258.941C203.231 258.941 200.28 255.99 200.28 252.347C200.28 248.705 203.231 245.754 206.874 245.754C210.516 245.754 213.468 248.705 213.468 252.347Z" fill="#555454"/>
<path d="M72.8296 287.913C90.7144 281.8 100.257 262.346 94.1446 244.461C88.0317 226.576 68.5778 217.033 50.693 223.146C32.8082 229.259 23.2652 248.713 29.3781 266.598C35.4909 284.483 54.9449 294.026 72.8296 287.913Z" fill="#323336"/>
<path d="M86.3303 255.526C86.3303 269.088 75.3366 280.082 61.7741 280.082C48.2116 280.082 37.214 269.088 37.214 255.526C37.214 241.963 48.2077 230.965 61.7741 230.965C75.3405 230.965 86.3303 241.959 86.3303 255.526Z" fill="#555454"/>
<path d="M79.2095 255.526C79.2095 265.153 71.4054 272.957 61.7742 272.957C52.143 272.957 44.3389 265.153 44.3389 255.526C44.3389 245.899 52.143 238.091 61.7742 238.091C71.4054 238.091 79.2095 245.895 79.2095 255.526Z" fill="#161616"/>
<path d="M69.0436 255.524C69.0436 259.537 65.7915 262.793 61.7743 262.793C57.7571 262.793 54.5051 259.541 54.5051 255.524C54.5051 251.507 57.7571 248.255 61.7743 248.255C65.7915 248.255 69.0436 251.507 69.0436 255.524Z" fill="#555454"/>
<path d="M207.076 218.238C192.71 218.238 180.365 226.878 174.939 239.242H234.088C236.524 239.242 237.988 236.552 236.681 234.499C230.454 224.723 219.526 218.238 207.076 218.238Z" fill="#0A6B33"/>
<path d="M82.9325 223.352C82.9325 239.179 95.765 252.011 111.592 252.011H175.731C185.042 252.011 192.588 244.465 192.588 235.153L199.936 231.585C206.502 228.396 209.473 220.666 206.729 213.9L193.287 180.735C191.679 176.761 187.818 174.165 183.535 174.165H168.294L174.938 225.944C174.938 234.494 168.009 241.427 159.455 241.427H129.273C116.39 241.427 105.947 230.984 105.947 218.101L108.145 189.063H44.8176C41.2299 189.063 38.3214 191.971 38.3214 195.559V212.221L82.9325 223.352Z" fill="#0C7F40"/>
<path d="M34.8897 226.507C34.8897 207.127 50.5995 191.418 69.979 191.418C89.3585 191.418 105.068 207.127 105.068 226.507V228.49H34.8897V226.507Z" fill="#0A5B2D"/>
<path d="M29.4747 226.507C29.4747 207.127 45.1844 191.418 64.564 191.418C83.9435 191.418 99.6532 207.127 99.6532 226.507V228.49H29.4747V226.507Z" fill="#0C7F40"/>
<path d="M46.1146 215.16C45.5993 215.16 45.1816 214.743 45.1816 214.227V213.154C45.1816 212.638 45.5993 212.221 46.1146 212.221H80.4153C80.9306 212.221 81.3483 212.638 81.3483 213.154V214.227C81.3483 214.743 80.9306 215.16 80.4153 215.16" fill="#0A5B2D"/>
<path d="M80.4543 217.022H46.0756C45.5818 217.022 45.1816 217.423 45.1816 217.916V219.068C45.1816 219.562 45.5818 219.962 46.0756 219.962H80.4543C80.9481 219.962 81.3483 219.562 81.3483 219.068V217.916C81.3483 217.423 80.9481 217.022 80.4543 217.022Z" fill="#0A5B2D"/>
<path d="M80.4543 221.826H46.0756C45.5818 221.826 45.1816 222.226 45.1816 222.72V223.871C45.1816 224.365 45.5818 224.765 46.0756 224.765H80.4543C80.9481 224.765 81.3483 224.365 81.3483 223.871V222.72C81.3483 222.226 80.9481 221.826 80.4543 221.826Z" fill="#0A5B2D"/>
<path d="M80.4543 207.421H46.0756C45.5818 207.421 45.1816 207.821 45.1816 208.315V209.467C45.1816 209.961 45.5818 210.361 46.0756 210.361H80.4543C80.9481 210.361 81.3483 209.961 81.3483 209.467V208.315C81.3483 207.821 80.9481 207.421 80.4543 207.421Z" fill="#0A5B2D"/>
<path d="M109.586 191.418H57.4674C53.9538 191.418 51.1078 188.572 51.1078 185.059C51.1078 181.545 53.9538 178.699 57.4674 178.699H109.586C113.1 178.699 115.946 181.545 115.946 185.059C115.946 188.572 113.1 191.418 109.586 191.418Z" fill="#323336"/>
<path d="M175.615 175.858C166.152 175.858 158.476 168.186 158.476 158.719C158.476 149.252 166.148 141.581 175.615 141.581C185.082 141.581 185.078 175.858 175.615 175.858Z" fill="#0C7F40"/>
<path d="M145.608 113.786C151.698 113.786 156.633 118.721 156.633 124.811C156.633 130.902 151.698 135.836 145.608 135.836C139.518 135.836 139.518 113.786 145.608 113.786Z" fill="#0C7F40"/>
<path d="M166.576 155.575H150.542C148.324 155.575 146.525 157.373 146.525 159.592V159.596C146.525 161.814 148.324 163.613 150.542 163.613H166.576C168.795 163.613 170.593 161.814 170.593 159.596V159.592C170.593 157.373 168.795 155.575 166.576 155.575Z" fill="#323336"/>
<path d="M173.381 158.391C172.983 158.391 172.608 158.141 172.472 157.743L162.61 129.146C161.724 126.581 159.307 124.856 156.594 124.856C156.063 124.856 155.634 124.426 155.634 123.896C155.634 123.365 156.063 122.935 156.594 122.935C160.127 122.935 163.278 125.18 164.429 128.522L174.291 157.119C174.463 157.622 174.197 158.169 173.693 158.341C173.588 158.376 173.483 158.395 173.381 158.395V158.391Z" fill="#323336"/>
<path d="M64.5017 167.628H11.6492C9.84241 167.628 8.37768 169.092 8.37768 170.898C8.37768 172.703 9.84241 174.167 11.6492 174.167H64.5017C66.3086 174.167 67.7733 172.703 67.7733 170.898C67.7733 169.092 66.3086 167.628 64.5017 167.628Z" fill="#898684"/>
<path d="M145.248 252.012H153.775V260.148C153.775 261.581 152.611 262.745 151.179 262.745H147.845C146.412 262.745 145.248 261.581 145.248 260.148V252.012Z" fill="#0C7F40"/>
<path d="M144.714 255.064H120.201C118.851 255.064 117.757 256.158 117.757 257.508C117.757 258.857 118.851 259.952 120.201 259.952H144.714C146.064 259.952 147.158 258.857 147.158 257.508C147.158 256.158 146.064 255.064 144.714 255.064Z" fill="#323336"/>
<path d="M70.5035 117.639H4.77168C2.86782 117.639 1.32444 119.182 1.32444 121.086V165.206C1.32444 167.109 2.86782 168.653 4.77168 168.653H70.5035C72.4074 168.653 73.9507 167.109 73.9507 165.206V121.086C73.9507 119.182 72.4074 117.639 70.5035 117.639Z" fill="#109B4B"/>
<path d="M4.91545 168.658H70.3545C72.3377 168.658 73.9462 167.05 73.9462 165.067V121.236C73.9462 119.253 72.3377 117.645 70.3545 117.645H63.9519C65.2988 129.036 63.7723 161.307 1.31986 154.206V165.067C1.31986 167.05 2.92831 168.658 4.91155 168.658H4.91545Z" fill="#0C7F40"/>
<path d="M72.069 130.532H1.32444V132.273H72.069V130.532Z" fill="#0C7F40"/>
<path d="M270.782 260.796L268.256 272.512C269.669 274.054 269.927 279.574 269.54 281.503C269.154 283.428 266.203 283.943 253.999 284.201C241.799 284.458 237.044 282.53 243.212 275.21C249.376 267.89 256.696 268.018 256.696 268.018L256.958 259.152L270.782 260.8V260.796Z" fill="#FDC686"/>
<path d="M243.212 275.207C237.047 282.527 241.798 284.455 253.998 284.197C266.198 283.94 269.154 283.428 269.54 281.5C269.927 279.575 269.669 274.051 268.256 272.509C268.256 272.509 262.091 274.242 261.385 271.869C260.678 269.491 256.696 268.015 256.696 268.015C256.696 268.015 249.376 267.887 243.212 275.207Z" fill="#202D19"/>
<path d="M243.212 275.206C237.047 282.526 241.798 284.455 253.998 284.197C266.198 283.939 269.154 283.428 269.54 281.499C269.653 280.933 269.712 280.059 269.7 279.063C266.729 280.777 261.834 280.02 261.834 280.02C261.834 280.02 262.091 278.095 258.625 274.047C255.158 270.002 248.287 270.771 248.287 270.771H248.275C246.612 271.806 244.871 273.231 243.212 275.202V275.206Z" fill="#F4F4F4"/>
<path d="M298.146 261.39L300.672 273.106C299.258 274.648 299.001 280.168 299.387 282.097C299.774 284.021 302.725 284.537 314.929 284.794C327.129 285.052 331.884 283.123 325.716 275.803C319.552 268.483 312.232 268.612 312.232 268.612L311.97 259.746L298.146 261.394V261.39Z" fill="#FDC686"/>
<path d="M325.72 275.802C331.884 283.122 327.133 285.051 314.933 284.793C302.733 284.535 299.778 284.024 299.391 282.095C299.005 280.171 299.262 274.647 300.675 273.104C300.675 273.104 306.84 274.838 307.547 272.464C308.253 270.087 312.235 268.611 312.235 268.611C312.235 268.611 319.555 268.482 325.72 275.802Z" fill="#202D19"/>
<path d="M325.721 275.805C331.885 283.126 327.134 285.054 314.934 284.796C302.734 284.539 299.778 284.027 299.392 282.099C299.279 281.533 299.22 280.658 299.232 279.663C302.203 281.377 307.098 280.619 307.098 280.619C307.098 280.619 306.841 278.694 310.307 274.646C313.774 270.601 320.645 271.371 320.645 271.371H320.657C322.32 272.405 324.061 273.83 325.721 275.802V275.805Z" fill="#F4F4F4"/>
<path d="M306.687 178.061L258.242 175.695L252.792 268.732C252.792 268.732 259.8 272.238 269.962 269.434L276.454 198.717C276.454 198.717 278.215 199.174 283.813 199.174C289.412 199.174 288.553 198.994 288.553 198.994L297.665 269.434C307.827 272.238 314.835 268.732 314.835 268.732L306.687 178.057V178.061Z" fill="#27391F"/>
<path d="M297.661 269.43C307.823 272.233 314.831 268.727 314.831 268.727L311.357 230.069C304.251 228.715 297.665 226.255 291.661 223.066L297.657 269.43H297.661Z" fill="#202D19"/>
<path d="M269.959 269.431L275.276 211.526C267.581 204.616 261.549 196.793 257.423 189.633L252.789 268.732C252.789 268.732 259.797 272.238 269.959 269.434V269.431Z" fill="#202D19"/>
<path d="M236.095 151.879C236.095 151.879 240.612 166.46 247.904 169.767C253.495 172.3 262.665 166.936 273.683 144.363C284.7 121.79 247.12 142.786 247.12 142.786L236.099 151.879H236.095Z" fill="#FDC686"/>
<path d="M308.252 119.063C306.987 117.232 298.66 112.734 295.939 112.075C294.307 111.68 287.659 111.13 283.844 111.017C280.034 110.95 273.362 111.188 271.715 111.505C268.966 112.036 256.739 117.536 255.392 119.309C255.392 119.309 245.921 136.205 241.498 145.907C241.498 145.907 243.469 156.366 257.867 157.412L255.923 185.24C255.923 185.24 261.447 191.521 281.385 192.349C281.568 192.357 281.752 192.364 281.935 192.368C282.119 192.368 282.298 192.372 282.486 192.372C302.439 192.482 308.252 186.466 308.252 186.466L307.616 158.575C311.059 128.514 308.252 119.059 308.252 119.059V119.063Z" fill="#0B7E3F"/>
<path d="M255.392 119.311C255.392 119.311 245.921 136.207 241.498 145.909C241.498 145.909 243.469 156.368 257.867 157.414L255.923 185.242C255.923 185.242 261.447 191.523 281.385 192.351C281.568 192.359 281.752 192.367 281.935 192.37C282.119 192.37 282.298 192.374 282.486 192.374C302.439 192.484 308.252 186.468 308.252 186.468L308.034 176.942C259.686 180.272 260.561 130.113 261.834 115.508C258.73 117.004 255.993 118.522 255.392 119.311Z" fill="#0C6D36"/>
<path d="M277.906 106.188C277.906 106.188 277.82 109.627 277.766 111.833C277.711 114.043 275.767 117.412 278.87 118.77C281.978 120.125 289.157 116.584 291.012 112.212L291.219 103.959L283.657 99.4689L277.906 106.188Z" fill="#F7B472"/>
<path d="M245.289 123.953L250.173 179.394C250.173 179.394 243.977 180.858 240.058 180.858L244.044 132.917V123.953H245.289Z" fill="#AE7444"/>
<path d="M205.191 133.748V123.953H244.044L243.978 133.748H205.191Z" fill="#D99C6D"/>
<path d="M210.103 123.953L210.099 131.578H244.044L243.982 133.748H210.095H207.647H205.191V123.953H210.103Z" fill="#C4875C"/>
<path d="M205.191 133.749L200.584 180.858H240.058L243.977 133.749H205.191Z" fill="#D99C6D"/>
<path d="M200.584 180.858L205.191 133.749H210.102C210.102 133.749 201.884 167.577 214.264 174.791C220.553 178.457 233.967 177.758 240.339 177.458L240.058 180.858H200.584Z" fill="#C4875C"/>
<path d="M286.504 176.73C291.322 175.211 297.459 168.68 302.741 155.941C308.027 143.202 310.971 135.367 302.339 132.302C294.714 129.593 291.033 134.559 288.351 139.798C285.669 145.037 280.773 158.295 280.773 158.295L254.487 145.783C252.508 143.792 248.639 140.286 245.906 140.224C242.088 140.134 236.47 141.664 234.604 143.686C232.738 145.709 233.011 148.457 233.011 148.457C232.106 150.116 232.828 151.873 232.828 151.873C231.95 154.18 233.46 155.418 233.46 155.418C234.671 159.181 240.019 155.07 240.019 155.07C244.173 159.014 249.943 158.557 252.715 158.038C252.715 158.038 272.782 178.932 285.883 176.87" fill="#FDC686"/>
<path d="M268.042 151.839L254.702 145.487C252.613 143.395 248.74 139.932 245.918 139.866C242.096 139.776 236.325 141.291 234.338 143.446C232.582 145.355 232.613 147.826 232.644 148.388C231.875 149.891 232.285 151.418 232.441 151.882C231.688 154.029 232.812 155.314 233.144 155.634C233.44 156.485 233.964 157.032 234.698 157.262C234.959 157.344 235.232 157.379 235.517 157.379C237.247 157.379 239.289 156.048 239.987 155.552C244.091 159.253 249.544 158.984 252.586 158.441C253.226 159.093 256.056 161.939 259.949 165.191C260.015 165.246 260.097 165.277 260.183 165.277C260.245 165.277 260.312 165.261 260.366 165.226C265.996 161.884 267.811 154.439 268.233 152.237C268.264 152.074 268.182 151.913 268.034 151.843L268.042 151.839Z" fill="#2F2E31"/>
<path d="M305.297 116.247C305.297 116.247 310.361 119.351 311.875 122.712C316.708 133.425 306.527 156.74 305.141 161.522C305.141 161.522 293.921 161.663 280.772 153.41C280.772 153.41 287.389 135.041 289.782 128.514" fill="#0C7F40"/>
<path d="M230.536 124.05C230.536 124.05 230.048 124.862 229.006 126.053C227.964 127.244 226.148 125.651 226.148 125.651C224.243 127.099 223.049 125.686 223.049 125.686C220.78 127.947 219.39 125.85 219.39 125.85C217.044 126.994 215.658 124.839 217.247 122.711C218.836 120.584 220.648 121.493 220.648 121.493C223.54 119.6 224.243 121.329 224.243 121.329C226.34 120.064 228.03 121.411 228.03 121.411C228.03 121.411 229.186 119.412 232.352 119.565C235.518 119.717 235.225 123.84 235.225 123.84C235.225 123.84 232.766 124.082 230.544 124.05L231.247 123.09" fill="#2F2E31"/>
<path d="M228.026 121.413C228.026 121.413 226.589 123.322 226.152 125.653L228.026 121.413Z" fill="#2F2E31"/>
<path d="M224.243 121.33C224.243 121.33 222.115 123.79 223.052 125.687L224.243 121.33Z" fill="#2F2E31"/>
<path d="M220.643 121.497C220.643 121.497 218.746 123.844 219.39 125.854L220.643 121.497Z" fill="#2F2E31"/>
<path d="M234.549 49.6992C234.549 49.6992 233.343 52.8498 236.47 54.6964C239.597 56.543 241.018 58.534 241.159 64.6438C241.299 70.7536 241.159 83.6836 242.295 87.0957C243.431 90.5078 244.001 98.1792 267.589 98.1792C291.177 98.1792 310.357 93.2055 310.357 93.2055L305.528 30.6828C305.528 30.6828 274.979 24.1475 274.124 24.1475C273.269 24.1475 243.29 35.516 243.29 35.516L236.755 43.8979L234.553 49.6992H234.549Z" fill="#202D19"/>
<path d="M315.331 68.6998C315.647 68.6998 318.895 65.9553 323.365 68.5359C327.621 70.9915 327.402 77.1325 324.076 81.38C320.75 85.6276 315.194 88.2784 310.509 85.9829C305.825 83.6834 315.331 68.7037 315.331 68.7037V68.6998Z" fill="#FDC686"/>
<path d="M313.341 74.753C313.341 74.753 319.513 68.7721 322.316 73.4334C325.912 79.4105 315.297 85.9068 311.877 82.807C308.457 79.7033 313.341 74.7569 313.341 74.7569V74.753Z" fill="#F7B472"/>
<path d="M315.971 52.1425C317.166 57.2334 317.236 62.5233 316.264 67.661C314.819 75.2816 311.692 89.1486 307.191 95.0086C300.823 103.297 286.718 108.516 278.153 107.935C269.623 106.963 256.689 99.2834 251.922 89.9802C248.623 83.5464 248.006 69.8082 247.94 61.9533C247.877 54.5981 249.892 47.3445 253.913 41.184C259.062 33.294 268.479 25.4118 285.422 26.3878C306.457 27.598 313.574 41.9257 315.975 52.1425H315.971Z" fill="#FDC686"/>
<path d="M314.558 57.3505C313.91 66.3727 314.46 71.2254 315.015 73.681C315.514 71.4635 315.932 69.3983 316.264 67.661C317.24 62.5233 317.166 57.2334 315.971 52.1426C313.574 41.9258 306.457 27.598 285.418 26.3878C268.475 25.4118 259.059 33.2901 253.909 41.184C249.888 47.3445 247.874 54.5982 247.936 61.9533C247.944 62.9176 247.959 63.9756 247.991 65.0922C248.135 65.5099 248.225 65.7363 248.225 65.7363C248.225 65.7363 248.225 65.7285 248.225 65.709C248.225 65.709 248.225 65.7012 248.225 65.6973C248.225 65.6817 248.225 65.6582 248.233 65.6309C248.233 65.627 248.233 65.6231 248.233 65.6192C248.233 65.6036 248.233 65.5841 248.237 65.5645C248.237 65.5567 248.237 65.5528 248.237 65.545C248.244 65.4787 248.252 65.3928 248.264 65.2913C248.264 65.2835 248.264 65.2795 248.264 65.2717C248.276 65.1624 248.291 65.0375 248.307 64.897C248.405 64.1122 248.588 62.8239 248.9 61.2272C248.9 61.2116 248.904 61.1999 248.908 61.1842C248.963 60.9032 249.021 60.6143 249.084 60.3176C249.092 60.2863 249.096 60.2551 249.103 60.2239C249.146 60.0247 249.189 59.8256 249.236 59.6226C250.782 52.7243 254.491 42.0507 262.931 38.8026C262.931 38.8026 267.433 37.1707 274.339 38.6074C274.339 38.6074 283.392 41.2035 288.952 38.1974C288.952 38.1974 296.627 40.044 300.867 36.8896C300.867 36.8896 315.331 46.4583 314.546 57.3544L314.558 57.3505Z" fill="#F7B472"/>
<path d="M316.057 52.1527C315.518 49.8611 314.741 47.3586 313.624 44.8483C313.843 45.6018 314.038 46.3436 314.206 47.0658C315.401 52.1566 315.471 57.4466 314.499 62.5842C313.054 70.2049 309.927 84.0719 305.426 89.9318C299.059 98.22 284.953 103.44 276.388 102.858C267.924 101.894 255.131 94.3238 250.274 85.1182C250.75 86.9804 251.32 88.6474 252.007 89.9943C256.774 99.2936 269.704 106.977 278.238 107.949C286.804 108.531 300.909 103.311 307.276 95.0227C311.778 89.1627 314.905 75.2996 316.349 67.6751C317.325 62.5374 317.251 57.2475 316.057 52.1566V52.1527Z" fill="#F7B472"/>
<path d="M271.511 66.1894C271.846 62.6108 269.496 59.4647 266.263 59.1625C263.03 58.8603 260.138 61.5164 259.804 65.0951C259.469 68.6738 261.819 71.8198 265.052 72.122C268.285 72.4242 271.177 69.7681 271.511 66.1894Z" fill="#F7F7F7"/>
<path d="M263.263 65.2581C263.052 67.3467 264.336 69.1855 266.132 69.3651C267.928 69.5486 269.556 68.0026 269.767 65.9139C269.978 63.8253 268.693 61.9865 266.898 61.8069C265.102 61.6234 263.474 63.1694 263.263 65.2581Z" fill="#2D1A16"/>
<path d="M267.639 63.4943C267.569 64.2712 268.139 64.9583 268.916 65.0286C269.692 65.0988 270.38 64.5289 270.45 63.752C270.52 62.9751 269.95 62.288 269.173 62.2177C268.396 62.1474 267.709 62.7174 267.639 63.4943Z" fill="#F7F7F7"/>
<path d="M297.587 68.6319C297.921 65.0533 295.571 61.9072 292.338 61.605C289.105 61.3028 286.213 63.9589 285.879 67.5376C285.544 71.1162 287.894 74.2623 291.127 74.5645C294.36 74.8667 297.252 72.2106 297.587 68.6319Z" fill="#F7F7F7"/>
<path d="M288.983 67.4715C288.772 69.5601 290.057 71.3989 291.852 71.5785C293.648 71.762 295.276 70.216 295.487 68.1274C295.698 66.0387 294.413 64.1999 292.618 64.0203C290.822 63.8368 289.194 65.3828 288.983 67.4715Z" fill="#2D1A16"/>
<path d="M293.36 65.7114C293.29 66.4883 293.86 67.1754 294.637 67.2456C295.414 67.3159 296.101 66.7459 296.171 65.969C296.241 65.1921 295.671 64.505 294.894 64.4348C294.117 64.3645 293.43 64.9345 293.36 65.7114Z" fill="#F7F7F7"/>
<path d="M274.76 59.137C274.76 59.137 278.012 66.3321 269.787 73.6834C265.867 77.1853 274.714 85.0089 281.089 79.7424" fill="#FDC686"/>
<path d="M269.017 84.3604C269.017 84.3604 275.326 86.1913 280.436 86.3319C285.547 86.4763 291.465 84.7469 291.465 84.7469C291.465 84.7469 290.899 91.044 284.153 92.8594C277.407 94.6747 268.447 91.2275 269.017 84.3604Z" fill="#AF4F51"/>
<path d="M284.153 92.8594C285.386 92.5275 286.413 92.0434 287.268 91.4773C285.667 90.7434 283.442 90.2749 280.975 90.2398C277.977 90.1968 275.318 90.8137 273.694 91.7897C276.723 93.3474 280.725 93.7846 284.153 92.8633V92.8594Z" fill="#FE8A8D"/>
<path d="M280.401 86.3286C276.856 86.2232 272.749 85.3174 270.566 84.7709C270.769 85.8484 271.519 87.3709 274.318 88.343C275.724 88.831 277.949 89.1902 280.362 89.2371C282.77 89.2566 285.007 88.9599 286.425 88.5109C289.247 87.6169 290.04 86.1139 290.274 85.0442C288.076 85.5322 283.946 86.3247 280.401 86.3325V86.3286Z" fill="white"/>
<path d="M266.577 52.5244C262.24 52.6259 256.345 52.4425 253.097 54.4335C253.097 54.4335 252.999 52.9578 254.338 51.5445C256.052 49.7409 262.88 49.0069 266.515 48.8234C270.458 48.6243 271.516 48.8625 271.516 48.8625C271.516 48.8625 272.464 52.3917 266.573 52.5283L266.577 52.5244Z" fill="#2D1A16"/>
<path d="M292.207 53.7097C296.943 54.2797 303.423 54.7364 306.73 57.0671C306.73 57.0671 307.023 55.607 305.731 54.061C304.079 52.0817 296.697 50.6138 292.738 50.036C288.448 49.4114 287.257 49.5324 287.257 49.5324C287.257 49.5324 285.777 52.9367 292.211 53.7097H292.207Z" fill="#2D1A16"/>
<path opacity="0.45" d="M235.475 48.6414C235.475 48.6414 232.356 81.0251 236.639 83.3324C240.921 85.6358 276.487 89.8248 301.8 83.7462C301.8 83.7462 310.218 47.802 290.147 44.101C270.076 40.4039 240.554 39.2405 235.475 48.6414Z" fill="#2C3D23"/>
<path opacity="0.3" d="M263.225 41.3902L243.58 84.998C247.269 85.5836 252.13 86.1263 257.658 86.4815L279.106 42.4599C273.867 41.8548 268.429 41.4605 263.229 41.3902H263.225Z" fill="#F7F7F7"/>
<path opacity="0.3" d="M284.534 43.1736L264.873 86.8126C266.243 86.8517 267.641 86.879 269.054 86.8868L288.641 43.8295C287.305 43.5991 285.935 43.3766 284.537 43.1697L284.534 43.1736Z" fill="#F7F7F7"/>
<path d="M317.365 96.9424C333.469 95.1426 337.447 73.5691 337.447 56.3328C337.447 25.2218 314.332 -0.00201416 285.821 -0.00201416C259.363 -0.00201416 237.555 21.7121 234.549 49.696C234.549 49.696 236.185 41.7631 251.957 41.7631C267.729 41.7631 296.147 40.0883 300.41 49.6648C304.673 59.2413 301.741 75.4469 301.69 88.0881C301.655 96.591 306.91 98.1136 317.369 96.9463L317.365 96.9424Z" fill="#39AB49"/>
<path d="M283.252 4.27288C286.184 2.62538 289.233 1.35658 292.353 0.446947C292.107 0.411811 291.857 0.380579 291.611 0.349347C291.552 0.341539 291.494 0.333731 291.435 0.329827C291.24 0.306403 291.049 0.286883 290.854 0.263459C290.787 0.255651 290.717 0.247842 290.651 0.243938C290.451 0.224418 290.252 0.204898 290.053 0.185378C289.999 0.181474 289.944 0.173666 289.893 0.169762C289.635 0.146338 289.378 0.126818 289.124 0.111202C289.124 0.111202 289.12 0.111202 289.116 0.111202C288.87 0.0955861 288.62 0.0799701 288.374 0.068258C288.3 0.064354 288.226 0.06045 288.152 0.056546C287.972 0.048738 287.793 0.04093 287.613 0.0331219C287.527 0.0331219 287.441 0.0253139 287.356 0.0253139C287.18 0.0214099 287 0.0136019 286.821 0.00969787C286.743 0.00969787 286.665 0.00969787 286.586 0.00579386C286.337 0.00188985 286.083 -0.00201416 285.829 -0.00201416C282.651 -0.00201416 279.54 0.314211 276.518 0.911524C268.042 6.49426 257.236 18.7177 254.261 28.8642C253.031 33.061 252.278 37.3867 251.997 41.7592C252.141 41.7592 252.29 41.7592 252.438 41.7592C252.465 41.7592 252.493 41.7592 252.52 41.7592C252.649 41.7592 252.778 41.7592 252.91 41.7592C252.934 41.7592 252.957 41.7592 252.977 41.7592C253.289 41.7592 253.605 41.7592 253.929 41.7553C253.929 41.7553 253.929 41.7553 253.933 41.7553C254.089 41.7553 254.242 41.7553 254.402 41.7553C254.425 41.7553 254.449 41.7553 254.472 41.7553C254.613 41.7553 254.757 41.7553 254.902 41.7553C254.921 41.7553 254.941 41.7553 254.96 41.7553C255.28 41.7553 255.608 41.7475 255.936 41.7475C255.979 41.7475 256.022 41.7475 256.065 41.7475C256.182 41.7475 256.303 41.7475 256.424 41.7475C256.479 41.7475 256.533 41.7475 256.584 41.7475C256.693 41.7475 256.807 41.7475 256.916 41.7475C256.971 41.7475 257.029 41.7475 257.084 41.7475C257.193 41.7475 257.302 41.7475 257.416 41.7475C258.357 41.7358 259.317 41.724 260.301 41.7123C260.301 41.7123 260.301 41.7123 260.305 41.7123C261.495 26.0963 269.639 11.9521 283.264 4.2963L283.252 4.27288Z" fill="#F7F7F7"/>
<path d="M313.95 78.8469C309.971 80.0884 305.946 80.7833 301.937 80.9668C301.8 83.4146 301.695 85.8039 301.687 88.0799C301.652 96.5828 306.907 98.1054 317.366 96.9381C331.483 95.3609 336.284 78.5814 337.253 62.8561C331.326 70.2308 323.401 75.8955 313.95 78.8469Z" fill="#329B3C"/>
<path d="M311.506 7.44948C308.031 5.27104 304.299 3.52204 300.375 2.26495C294.07 4.89626 288.21 8.76903 283.096 13.7662C275.366 21.3204 269.791 30.9867 266.902 41.6447C269.744 41.6525 272.641 41.6954 275.483 41.8126C281.16 24.592 295.046 10.8889 311.506 7.44557V7.44948Z" fill="#F7F7F7"/>
<path d="M307.965 99.0987C308.968 99.0987 309.874 98.396 310.084 97.3731C310.33 96.2019 309.577 95.0502 308.406 94.8082C305.583 94.2187 303.838 92.8913 303.858 88.0972C303.873 84.6031 304.107 80.8748 304.357 76.9278C305.005 66.7149 305.673 56.1507 302.394 48.7838C298.072 39.0745 275.967 39.3361 258.216 39.5469C255.987 39.5743 253.878 39.5977 251.958 39.5977C234.616 39.5977 232.508 48.8697 232.426 49.264C232.184 50.4352 232.937 51.583 234.112 51.825C235.268 52.0671 236.404 51.3292 236.666 50.1814C236.755 49.8457 238.52 43.9389 251.958 43.9389C253.894 43.9389 256.018 43.9155 258.267 43.8882C272.11 43.7242 295.269 43.4509 298.431 50.5523C301.277 56.9471 300.645 66.9687 300.032 76.6584C299.79 80.4961 299.54 84.4626 299.524 88.0855C299.497 94.3436 302.116 97.9353 307.523 99.0636C307.672 99.0948 307.82 99.1104 307.968 99.1104L307.965 99.0987Z" fill="#2C3D23"/>
</svg>
