<svg width="26" height="20" viewBox="0 0 26 20" fill="none" xmlns="http://www.w3.org/2000/svg">
<path d="M0 4.16667C0 3.0616 0.428012 2.00179 1.18988 1.22039C1.95175 0.438987 2.98506 0 4.0625 0H21.9375C23.0149 0 24.0483 0.438987 24.8101 1.22039C25.572 2.00179 26 3.0616 26 4.16667V15.8333C26 16.9384 25.572 17.9982 24.8101 18.7796C24.0483 19.561 23.0149 20 21.9375 20H4.0625C2.98506 20 1.95175 19.561 1.18988 18.7796C0.428012 17.9982 0 16.9384 0 15.8333V4.16667ZM4.0625 1.66667C3.41603 1.66667 2.79605 1.93006 2.33893 2.3989C1.88181 2.86774 1.625 3.50363 1.625 4.16667V6.33333H24.375V4.16667C24.375 3.50363 24.1182 2.86774 23.6611 2.3989C23.204 1.93006 22.584 1.66667 21.9375 1.66667H4.0625ZM1.625 15.8333C1.625 16.4964 1.88181 17.1323 2.33893 17.6011C2.79605 18.0699 3.41603 18.3333 4.0625 18.3333H21.9375C22.584 18.3333 23.204 18.0699 23.6611 17.6011C24.1182 17.1323 24.375 16.4964 24.375 15.8333V8H1.625V15.8333ZM17.7125 13.6667C17.497 13.6667 17.2903 13.7545 17.138 13.9107C16.9856 14.067 16.9 14.279 16.9 14.5C16.9 14.721 16.9856 14.933 17.138 15.0893C17.2903 15.2455 17.497 15.3333 17.7125 15.3333H21.2875C21.503 15.3333 21.7097 15.2455 21.862 15.0893C22.0144 14.933 22.1 14.721 22.1 14.5C22.1 14.279 22.0144 14.067 21.862 13.9107C21.7097 13.7545 21.503 13.6667 21.2875 13.6667H17.7125Z" fill="#0A9962"/>
</svg>
