<svg width="18" height="22" viewBox="0 0 18 22" fill="none" xmlns="http://www.w3.org/2000/svg">
<path d="M15.3261 1.60162C14.3426 0.480605 12.5647 1.12586e-08 10.2903 1.12586e-08H3.68928C3.46423 -3.47083e-05 3.24656 0.0802334 3.07542 0.226366C2.90427 0.372498 2.79089 0.574904 2.75566 0.797173L0.00713249 18.229C-0.0474994 18.5728 0.218672 18.8841 0.567074 18.8841H4.6423L5.66576 12.3924L5.634 12.5957C5.70691 12.1368 6.09936 11.7984 6.56408 11.7984H8.50062C12.3049 11.7984 15.2838 10.2531 16.1539 5.78314C16.1798 5.65094 16.2022 5.52226 16.2215 5.39655C16.1117 5.33839 16.1117 5.33839 16.2215 5.39655C16.4806 3.7444 16.2197 2.61979 15.3261 1.60162Z" fill="#27346A"/>
<path d="M7.2251 4.80139C7.33648 4.74826 7.45835 4.72076 7.58176 4.72092H12.7568C13.3696 4.72092 13.9412 4.7608 14.4635 4.84487C14.6097 4.86819 14.7551 4.89601 14.8995 4.9283C15.1042 4.97348 15.3066 5.02877 15.5058 5.09396C15.7626 5.17972 16.0018 5.2796 16.2216 5.39655C16.4806 3.74376 16.2197 2.61979 15.3261 1.60162C14.342 0.480605 12.5647 0 10.2903 0H3.68871C3.22392 0 2.82851 0.338379 2.75566 0.797173L0.00713287 18.2284C-0.047499 18.5727 0.218672 18.8836 0.566509 18.8836H4.6423L6.76567 5.41829C6.78656 5.28595 6.83929 5.16066 6.91932 5.0532C6.99935 4.94574 7.10429 4.85932 7.2251 4.80139Z" fill="#27346A"/>
<path d="M16.1536 5.78319C15.2834 10.2526 12.3046 11.7984 8.50025 11.7984H6.56315C6.09842 11.7984 5.70591 12.1369 5.6337 12.5957L4.36044 20.6673C4.31287 20.9682 4.54551 21.2408 4.84987 21.2408H8.28518C8.48196 21.2407 8.67228 21.1704 8.82189 21.0426C8.97149 20.9148 9.07059 20.7378 9.10134 20.5434L9.1348 20.3683L9.78226 16.2649L9.82398 16.0381C9.85473 15.8437 9.95381 15.6667 10.1034 15.5389C10.253 15.4111 10.4433 15.3408 10.6401 15.3407H11.1542C14.482 15.3407 17.0878 13.9888 17.8492 10.0787C18.167 8.4447 18.0026 7.08045 17.1618 6.12221C16.9068 5.83197 16.5901 5.59226 16.2211 5.39661C16.2011 5.52295 16.1795 5.65099 16.1536 5.78319Z" fill="#2790C3"/>
<path d="M15.3105 5.03335C15.1749 4.99374 15.0379 4.95866 14.8999 4.92818C14.7554 4.89641 14.61 4.86878 14.4639 4.84532C13.941 4.76069 13.3698 4.72073 12.7565 4.72073H7.58204C7.45856 4.72053 7.33663 4.74825 7.22538 4.80184C7.10441 4.85956 6.99934 4.94591 6.91927 5.05341C6.8392 5.16091 6.78655 5.2863 6.76588 5.41874L5.66604 12.3923L5.63428 12.5956C5.70663 12.1367 6.09907 11.7982 6.56387 11.7982H8.50097C12.3053 11.7982 15.2841 10.253 16.1542 5.78302C16.1801 5.65082 16.2019 5.52271 16.2218 5.39643C16.0015 5.28021 15.763 5.17953 15.5061 5.09441C15.4413 5.07292 15.3761 5.05256 15.3106 5.03335" fill="#1F264F"/>
</svg>
