<svg width="23" height="24" viewBox="0 0 23 24" fill="none" xmlns="http://www.w3.org/2000/svg">
<path d="M11.5 0C10.2364 0 9.00117 0.370414 7.95052 1.0644C6.89988 1.75839 6.081 2.74478 5.59744 3.89884C5.11388 5.0529 4.98736 6.3228 5.23387 7.54794C5.48039 8.77308 6.08887 9.89845 6.98237 10.7817C7.87588 11.665 9.01427 12.2665 10.2536 12.5102C11.4929 12.7539 12.7775 12.6288 13.9449 12.1508C15.1123 11.6728 16.1101 10.8633 16.8122 9.82465C17.5142 8.78603 17.8889 7.56493 17.8889 6.31579C17.8889 4.64074 17.2158 3.03429 16.0176 1.84985C14.8195 0.665412 13.1944 0 11.5 0ZM11.5 10.1053C10.7418 10.1053 10.0007 9.88301 9.37031 9.46662C8.73993 9.05023 8.2486 8.45839 7.95846 7.76596C7.66833 7.07352 7.59241 6.31159 7.74032 5.5765C7.88823 4.84141 8.25332 4.16619 8.78942 3.63623C9.32553 3.10626 10.0086 2.74535 10.7522 2.59913C11.4957 2.45291 12.2665 2.52796 12.967 2.81477C13.6674 3.10159 14.2661 3.58729 14.6873 4.21047C15.1085 4.83365 15.3333 5.5663 15.3333 6.31579C15.3333 7.32082 14.9295 8.28469 14.2106 8.99535C13.4917 9.70602 12.5167 10.1053 11.5 10.1053ZM23 24V22.7368C23 20.3918 22.0576 18.1427 20.3802 16.4845C18.7028 14.8263 16.4278 13.8947 14.0556 13.8947H8.94444C6.57223 13.8947 4.29718 14.8263 2.61977 16.4845C0.942358 18.1427 0 20.3918 0 22.7368V24H2.55556V22.7368C2.55556 21.0618 3.22867 19.4553 4.42682 18.2709C5.62497 17.0865 7.25001 16.4211 8.94444 16.4211H14.0556C15.75 16.4211 17.375 17.0865 18.5732 18.2709C19.7713 19.4553 20.4444 21.0618 20.4444 22.7368V24H23Z" fill="#0A9962"/>
</svg>
