<svg width="10" height="13" viewBox="0 0 10 13" fill="none" xmlns="http://www.w3.org/2000/svg">
<path d="M4.01875 3.458L3.0375 2.873C3.3625 2.34 3.81875 1.95 4.3375 1.755C4.29891 1.62399 4.22112 1.50921 4.11545 1.42737C4.00978 1.34553 3.88175 1.30091 3.75 1.3V0C4.23125 0 4.66875 0.1885 5 0.5005V1.3C5.28125 1.3 5.50625 1.495 5.5875 1.755C4.89375 2.002 4.33125 2.6325 4.01875 3.458ZM3.75 5.85C3.75 5.3495 3.89375 4.875 4.125 4.4915L3.2875 3.9975C2.8125 4.186 2.5 4.654 2.5 5.2V5.85C2.5 10.4325 5.5625 12.22 6.89375 12.779C5.25625 11.453 3.75 9.23 3.75 5.85ZM1.51875 3.458L0.5375 2.873C0.8625 2.34 1.31875 1.95 1.8375 1.755C1.79891 1.62399 1.72112 1.50921 1.61545 1.42737C1.50978 1.34553 1.38175 1.30091 1.25 1.3V0C1.73125 0 2.16875 0.1885 2.5 0.5005V1.3C2.78125 1.3 3.00625 1.495 3.0875 1.755C2.39375 2.002 1.83125 2.6325 1.51875 3.458ZM1.25 5.85C1.25 5.3495 1.39375 4.875 1.625 4.4915L0.7875 3.9975C0.3125 4.186 0 4.654 0 5.2V5.85C0 10.4325 3.0625 12.22 4.39375 12.779C2.75625 11.453 1.25 9.23 1.25 5.85ZM9.375 4.082L8.59375 4.55L7.5 3.9L6.40625 4.55L5.625 4.082C5.25 4.3095 5 4.7255 5 5.2V5.85C5 11.7 10 13 10 13V5.2C10 4.7255 9.75 4.3095 9.375 4.082ZM5.45625 3.0095L6.40625 3.575L7.5 2.925L8.59375 3.575L9.54375 3.0095C9.2 2.379 8.69375 1.911 8.10625 1.7225C8.0533 1.24882 7.83506 0.811809 7.49293 0.494323C7.15079 0.176838 6.70853 0.000947746 6.25 0V1.3C6.525 1.3 6.75 1.4885 6.8375 1.7485C6.26875 1.95 5.7875 2.405 5.45625 3.0095Z" fill="#DA2A2A"/>
</svg>
